<svg width="60" height="60" viewBox="0 0 60 60" fill="none" xmlns="http://www.w3.org/2000/svg">
<path d="M47.7025 48.9041C47.1579 49.5606 45.933 49.7571 45.2877 49.0703L33.8717 35.8069C33.3394 35.5942 33.4319 36.0784 33.2182 36.1797C28.0475 38.6294 23.2057 39.144 18.1872 35.8738C7.68154 29.0273 11.2533 12.6194 23.6353 10.6884C36.8865 8.62172 45.522 24.0308 36.2556 33.6653L47.4333 46.5497C48.0169 47.1008 48.2224 48.274 47.7004 48.9061L47.7025 48.9041ZM36.8084 24.3226C36.8084 18.4446 31.9748 13.6791 26.013 13.6791C20.0512 13.6791 15.2176 18.4446 15.2176 24.3226C15.2176 30.2005 20.0512 34.9661 26.013 34.9661C31.9748 34.9661 36.8084 30.2005 36.8084 24.3226Z" fill="#2F3A4A"/>
</svg>
