<svg width="32" height="32" viewBox="0 0 32 32" fill="none" xmlns="http://www.w3.org/2000/svg">
<path d="M12.4065 17.1881V19.3741H19.1294C19.8939 19.3741 20.0437 21.6886 18.8733 21.6886H12.5986C12.5602 21.6886 12.5 21.5253 12.4065 21.56V27.282C12.4065 27.6318 11.5537 28.015 11.1926 27.9995C10.7815 27.9828 10.1016 27.5778 10.1016 27.1535V21.6886H7.8606C6.6684 21.6886 6.82975 19.3741 7.73254 19.3741H10.1016V17.1881H7.60449C7.56351 17.1881 7.0897 16.7008 7.05512 16.5838C6.94756 16.2212 6.98342 15.4651 7.28819 15.1989C7.35222 15.1424 7.95023 14.8736 7.98865 14.8736H10.1016V4.77973C10.1016 4.62414 10.6547 3.97222 10.9275 4.06608C16.7873 4.05194 25.8177 2.82653 24.9406 11.5793C24.6204 14.7733 21.4741 17.1881 18.3611 17.1881H12.4065ZM12.4065 15.0022C15.2404 14.5046 20.1116 15.9306 22.0132 13.0117C22.9352 11.5973 22.9877 8.98187 21.7584 7.73203C21.0656 7.02739 19.068 6.25845 18.1037 6.25845H12.4053V15.0022H12.4065Z" fill="#2F3A4A"/>
</svg>
