<svg width="60" height="60" viewBox="0 0 60 60" fill="none" xmlns="http://www.w3.org/2000/svg">
<g clip-path="url(#clip0_20_1580)">
<path d="M38.1453 29.3417C35.3016 28.3411 24.9991 28.2956 22.1263 29.2011C20.0314 29.8605 17.839 31.7335 16.8932 33.7015C16.7708 33.9557 16.1008 35.6943 16.1008 35.8059V51.0001H43.8949V36.2194C43.8949 33.5712 40.568 30.1934 38.1432 29.3417H38.1453Z" fill="#2F3A4A"/>
<path d="M31.9444 26.5042C36.7285 25.3789 39.6914 20.6013 38.5623 15.8333C37.4331 11.0652 32.6395 8.11227 27.8555 9.23763C23.0714 10.363 20.1085 15.1405 21.2376 19.9086C22.3668 24.6766 27.1604 27.6296 31.9444 26.5042Z" fill="#2F3A4A"/>
</g>
<defs>
<clipPath id="clip0_20_1580">
<rect width="27.7941" height="42" fill="white" transform="translate(16.1029 9)"/>
</clipPath>
</defs>
</svg>
