<svg width="60" height="60" viewBox="0 0 60 60" fill="none" xmlns="http://www.w3.org/2000/svg">
<rect width="60" height="60" rx="30" fill="#9575CD"/>
<path d="M20.2456 31.3769C17.3886 31.0881 15.024 28.2994 15.2086 25.4175C15.2742 24.391 15.6779 23.1949 16.1674 22.2965C16.442 21.7924 16.9721 21.3885 16.7774 20.7693C16.3203 19.3144 14.8292 18.2757 15.6684 16.4808C15.8922 16.0027 16.254 15.8487 16.471 15.5524C16.6421 15.3188 16.92 14.34 17.133 13.9374C19.5302 9.40574 25.1832 7.03126 30.0984 8.37312C34.2841 9.51609 37.0544 13.3857 36.7021 17.7791C36.646 18.4759 36.3938 19.0849 36.243 19.7531C36.2728 19.8443 37.5589 20.2741 37.7908 20.3784C42.6148 22.541 46.1581 28.4881 47.4435 33.4734C47.9635 35.491 48.2624 37.5971 48.2069 39.6869C48.4916 39.3851 48.6438 38.847 48.7655 38.4451C50.3802 33.0981 47.1649 29.5276 44.8138 25.2922C42.8197 21.7005 42.2057 17.0707 45.6726 14.1459C49.6858 10.7599 56.3943 13.4477 55.9818 18.8764C55.7377 22.086 51.9294 22.774 50.9942 20.0882C50.7346 19.3417 51.1105 18.2239 50.1185 18.042C49.0758 17.8506 48.5261 19.0992 48.4754 19.9642C48.3428 22.2263 51.0956 25.6436 52.164 27.6966C54.7261 32.62 55.4057 38.2374 52.0484 42.9775C50.6784 44.912 47.7038 47.5187 45.2675 47.7265C41.8757 48.0153 38.0829 47.5051 34.6492 47.7238C33.8723 47.6481 32.9844 47.0923 32.4489 46.5345C32.271 46.3492 31.7037 45.4542 31.5935 45.4208C31.4988 45.3929 30.2851 45.2628 30.1917 45.2723C30.02 45.2886 29.4209 45.7041 29.1551 45.8009C28.0989 46.1864 27.232 45.9412 26.1623 45.886L26.3503 46.0011C26.9095 46.2457 28.0725 46.3022 28.5526 46.576C28.8901 46.7681 28.9151 47.2674 28.5912 47.4813L17.576 51.9837L17.1506 52L4.41786 47.9329C3.91883 47.6836 3.86879 47.1843 4.25693 46.8097L6.70814 45.8731L6.81092 45.7723C6.98741 44.9024 6.95427 43.9454 7.11115 43.0776C7.20852 42.5395 7.36405 42.5423 7.51416 42.1901C7.70214 41.7494 7.32145 41.7092 7.05773 41.3904C5.4707 39.4703 7.65346 35.2145 9.6834 34.3617C10.0891 34.1914 10.4982 34.1519 10.8836 34.0041L12.7601 29.3552C13.3862 28.1387 14.9814 28.7163 14.6338 30.1528C14.3295 31.413 13.3227 32.9946 12.9393 34.3051C12.9197 34.3726 12.8906 34.4352 12.9082 34.5081C13.5539 34.5721 14.2322 34.9522 14.8522 35.0367C15.7861 35.1647 18.0561 34.3855 18.929 33.9332C20.0015 33.3781 20.7717 32.4953 21.2247 31.3755C20.9076 31.3523 20.5559 31.4068 20.2442 31.3755L20.2456 31.3769ZM30.4223 17.1409H31.4704C31.4975 17.1409 31.8646 17.3881 31.9113 17.4453C32.4462 18.0999 31.204 18.9357 30.6428 19.0317C28.5797 19.3839 28.3518 16.8882 28.9218 15.4591C29.4919 14.0301 31.2709 13.1398 32.7775 13.5764C33.2184 13.7045 33.9439 14.2119 34.3104 14.2814C34.4295 14.3039 34.4579 14.2058 34.4112 14.1452C34.4071 14.1397 34.3125 14.1561 34.2766 14.0975C34.0555 13.7317 33.8986 13.2699 33.6559 12.8973C32.6632 11.3736 31.0688 10.58 29.4905 10.0637C27.2428 9.32877 24.0573 9.98608 22.1531 11.1597C21.1496 11.7782 20.1638 12.5962 19.4409 13.5362C19.2786 13.7474 18.4111 14.9789 18.5902 15.1655C18.9804 15.0783 19.495 15.2636 19.8405 15.2391C20.0048 15.2275 20.111 15.1199 20.2517 15.1022C21.792 14.906 23.5224 14.7439 24.8829 15.5368C27.3537 16.9774 27.2841 19.9343 26.1231 22.242C26.0412 22.4041 25.7714 22.6895 25.7579 22.8325C25.7376 23.0464 26.0372 23.3856 26.1285 23.6138C26.6532 24.9175 26.3888 25.9263 26.1285 27.2212C26.1143 27.2934 26.0433 27.3193 26.1981 27.2907C26.4301 27.2477 27.0143 26.9126 27.2408 26.7737C28.6757 25.8943 29.8881 24.4516 30.5724 22.9095C30.7428 22.526 30.7949 21.7904 31.2865 21.6535C31.8937 21.4839 32.4103 21.4069 32.9513 21.0112C35.2524 19.3274 34.4957 14.8733 31.6138 15.2391C30.9809 15.3195 30.3702 16.1552 30.3709 16.7662C30.3709 16.8861 30.446 17.0121 30.4243 17.1402L30.4223 17.1409ZM51.0956 14.4381C49.6851 14.1098 48.1934 14.4163 47.0358 15.2459C45.8531 16.0933 45.0728 17.4269 44.8943 18.8785C44.3702 23.1309 47.9486 26.5898 49.5417 30.2026C51.1565 33.8671 51.5189 37.7395 49.3172 41.2474C48.8507 41.9905 48.0237 42.7779 47.858 43.5967C47.783 43.9693 47.7573 44.4113 47.7343 44.7948C47.9223 44.9985 49.4491 43.5912 49.629 43.4005C53.5665 39.2366 53.3244 33.31 50.7332 28.4575C49.0603 25.3255 44.6603 20.6147 47.9338 17.1715C49.0583 15.9884 51.0165 15.9087 52.0599 17.2444C52.6631 18.0168 52.4636 18.3049 52.4616 19.1496C52.4602 19.9315 53.5306 20.4315 54.0242 19.7646C54.6768 18.8832 54.1203 17.0448 53.6016 16.1648C53.2743 15.6096 52.1235 14.7541 51.5392 14.5675C51.4162 14.528 51.2742 14.577 51.1612 14.5505C51.1132 14.5389 51.1125 14.4415 51.0963 14.4381H51.0956ZM24.11 27.7443C24.7402 26.6088 24.912 25.0994 24.229 23.9578C24.0492 23.6567 23.7063 23.4231 23.7226 23.0342C23.7402 22.6112 24.4948 21.7202 24.7105 21.2986C26.0683 18.6482 24.4623 15.9598 21.4059 16.6647C21.2092 16.7104 21.2518 16.7206 20.9292 16.7512C20.0894 16.8323 19.2664 16.9174 18.4185 16.9352C17.9411 16.9454 17.4968 16.7758 17.2081 17.2819C17.0336 17.587 17.1148 17.835 17.2237 18.1401C17.4062 18.6537 17.7322 19.1448 18.0053 19.5978C18.0716 19.7074 18.146 20.1563 18.2582 19.8355C18.434 19.3328 18.4388 18.6469 19.2272 18.779C19.8669 18.886 19.8392 20.2912 19.6167 20.7298C19.3165 21.3211 18.7302 20.943 18.5875 21.1195L18.0067 22.4497C18.0479 22.697 18.3414 22.6997 18.4104 22.9381C18.5348 23.3672 18.4104 23.9796 17.8742 24.0198C17.5286 24.0457 17.4306 23.5314 17.2223 23.9033C17.0992 24.1233 16.8632 25.0871 16.8362 25.3535C16.8139 25.5714 16.7943 26.5325 16.8639 26.6769C16.9451 26.8452 17.3183 26.9569 17.4908 26.9991C17.8978 27.0972 19.5971 27.0652 20.0941 27.0025C20.4451 26.9583 21.1733 26.4958 21.669 26.4086C22.0131 26.3479 22.3634 26.6306 22.3803 26.9841C22.3952 27.3009 22.308 27.1755 22.2065 27.2907C21.5134 28.0774 19.3841 28.3546 18.3482 28.3144C18.2691 28.311 17.7633 28.1489 17.8444 28.3444C18.3089 28.8008 18.7748 29.1046 19.3483 29.4036C20.9907 30.2605 23.2127 29.3579 24.1087 27.7436L24.11 27.7443ZM35.6804 21.5247C35.4938 21.4634 34.9975 21.5193 34.8216 21.6058C34.5816 21.7236 34.0055 22.3482 33.6214 22.5764C33.3908 22.7133 32.3894 23.0948 32.3393 23.1534C32.1737 23.3468 32.1459 23.6976 32.0384 23.9108C30.5305 26.8997 27.9454 28.8593 24.8586 29.8238C24.7517 29.8572 24.6801 30.0221 24.5394 30.0159C25.6876 32.9469 27.3044 35.6313 28.8941 38.3307C29.1267 38.5167 29.2653 38.2967 29.4472 38.2619C30.5386 38.0562 31.6395 37.9445 32.7221 37.6782C33.5802 37.4677 34.046 37.4827 34.14 36.4501C34.3666 33.972 32.7944 30.5036 33.7904 28.0604C33.9311 27.7157 34.1049 27.4364 34.5153 27.4235C35.6865 27.386 35.1908 28.5998 35.153 29.2966C35.0989 30.272 35.2395 31.4436 35.3775 32.4143C35.5844 33.8699 36.4594 36.7579 35.5898 37.9786C34.8257 39.052 33.4997 39.2326 32.3657 39.4982C30.5062 39.9341 28.4755 40.336 26.4639 40.2345C25.3515 40.1787 23.3682 39.7427 22.356 40.2461C22.2356 40.306 22.2241 40.4443 22.1761 40.4722C22.1112 40.5104 22.0044 40.4082 21.9165 40.4484C21.7075 40.5431 20.6716 41.3775 20.4464 41.5927C20.0414 41.981 19.0284 43.2602 18.8905 43.7717C18.835 43.9768 18.806 44.224 18.9567 44.3902C19.3165 44.7873 19.5261 43.9781 19.6965 43.7322C20.0245 43.2609 20.6249 42.5899 21.0543 42.2051C21.3559 41.9347 22.4013 41.1105 22.7502 41.0526C23.3006 40.9613 23.5806 41.338 23.4176 41.8645C23.3432 42.105 22.2187 42.7582 21.9361 43.0252C21.5926 43.3494 20.7514 44.4134 20.6357 44.8479C20.581 45.0543 20.6635 45.3309 20.8832 45.384C21.3654 45.5005 21.6784 44.6967 21.9354 44.3861C22.3337 43.9046 23.6563 42.7623 24.2879 42.9012C24.6327 42.9768 24.7551 43.3378 24.6605 43.658C24.5658 43.9781 22.9138 44.7567 22.851 45.4474C22.7975 46.0338 23.4149 45.7539 23.6935 45.6122C24.3967 45.2546 25.3928 44.4406 26.1461 44.3364C26.7499 44.2526 27.1881 44.4249 27.7486 44.4576C28.788 44.5189 29.1274 44.0673 29.9821 43.6028C31.5854 43.6219 33.2779 43.7281 34.7838 43.5006C35.5195 43.3896 36.1734 43.3331 36.8651 43.1451C37.9849 42.8406 39.4962 42.3958 40.1967 41.3925C40.4821 40.9838 40.3353 40.9974 40.7485 40.6235C41.775 39.6957 41.5309 32.7582 41.3787 31.4123C41.3436 31.103 41.2272 30.8585 41.3922 30.5397C41.5572 30.221 42.2983 30.1106 42.5249 30.4096C42.6696 30.601 42.9935 31.9375 43.0503 32.246C43.5858 35.1715 43.3978 40.3912 41.3064 42.6969C39.9749 44.1641 37.9619 44.6926 36.0807 44.9419C35.5648 45.0107 35.0975 45.0019 34.6452 45.0618C34.5194 45.0788 34.5559 45.1906 34.5025 45.2021C34.2286 45.2634 33.8195 45.1858 33.5348 45.305C33.6228 45.4787 33.7986 45.589 33.9588 45.6953C34.04 45.7484 34.6059 46.0951 34.6458 46.0938C34.7723 46.0897 34.9041 46.0209 35.0529 46.0175C38.5029 45.9453 41.9792 46.1203 45.4176 45.9684C45.5725 45.9058 45.8457 45.5121 45.891 45.3554C46.083 44.696 46.221 43.549 46.3041 42.8426C47.0006 36.918 45.7733 31.0404 42.2314 26.2907C41.2962 25.0367 39.699 23.3938 38.3433 22.6132C37.5636 22.1643 36.4682 21.7822 35.6811 21.5227L35.6804 21.5247ZM25.2433 35.3684C24.5469 34.1246 23.9031 32.8713 23.2885 31.5826C22.6035 32.6847 22.1031 33.7616 21.0455 34.5667C19.4794 35.7587 17.7267 36.2566 15.8652 36.636C15.5764 36.6946 15.4939 36.8206 15.0504 36.8002C14.2646 36.7634 13.7575 36.4085 13.1273 36.2185C13.0218 36.1865 12.3354 36.0257 12.2969 36.0434C12.1934 36.0904 11.4611 37.8328 11.5193 37.9173C11.5923 38.0051 11.689 37.9956 11.7884 37.9833C11.8756 37.9724 12.5728 37.794 12.6546 37.762C12.9751 37.6373 13.1475 37.2123 13.6101 37.5855C14.0293 37.9241 13.675 38.5201 13.3071 38.7598C12.846 39.0609 12.1589 39.0704 11.6721 39.2952C11.5781 39.3381 11.574 39.4458 11.503 39.4805C11.0953 39.6801 10.4401 39.8463 10.3041 40.366C10.2176 40.6957 10.2899 41.088 10.6585 41.1711C10.8214 41.2079 11.6822 41.2099 11.8445 41.1691C12.1123 41.1016 12.4707 40.8121 12.8264 40.7277C13.343 40.6044 13.888 40.663 14.3958 40.4695C14.8347 40.302 15.425 39.5902 15.7888 39.5513C16.1526 39.5125 16.3203 39.7863 16.5921 39.8939C17.1249 40.1058 18.4178 40.0595 19.0318 40.0302C19.2759 40.0186 19.967 39.9818 20.1475 39.928C20.3551 39.866 20.7744 39.4526 21.0151 39.3034C21.4458 39.0364 22.0199 38.6863 22.5102 38.5616C23.2871 38.3648 23.6002 38.5698 24.2696 37.95C24.4468 37.7858 25.7065 36.3281 25.7282 36.2164C25.5591 35.9889 25.4834 35.6763 25.3502 35.4433C25.3258 35.4011 25.2548 35.3875 25.2433 35.367V35.3684ZM10.0005 36.1449C9.74764 36.1728 9.55898 36.3465 9.39466 36.5216C8.7827 37.1714 7.94219 39.0323 8.04565 39.9191C8.06323 40.069 8.16601 40.5404 8.32762 40.2808C8.56294 39.9028 8.74078 39.1828 8.91524 38.7639C9.27836 37.8921 9.73073 37.0495 10.0005 36.1456V36.1449ZM27.0413 38.4601C27.0833 38.4022 26.8297 37.89 26.6688 37.9118L26.2306 38.36L26.7458 38.5235L27.042 38.4601H27.0413ZM18.453 41.5948C17.9627 41.6084 17.4211 41.6595 16.9322 41.5941C16.6976 41.5628 16.0417 41.3155 15.9328 41.3325C15.8165 41.3502 15.2904 41.8012 15.0747 41.904C14.3958 42.2282 13.6804 42.2003 12.9616 42.3638C12.1184 42.5559 11.5835 42.923 10.6497 42.8134C10.3163 42.7738 10.0323 42.5831 9.70503 42.5429C9.36085 43.502 8.79352 44.3194 8.30937 45.2042C10.3995 44.521 12.4321 43.6341 14.5128 42.9053C15.5075 42.8263 16.4602 43.4196 17.4603 43.3678L18.4516 41.5948H18.453ZM17.8241 45.2253C17.434 44.9413 15.3716 44.5183 14.8286 44.4624C14.5087 44.429 13.7149 44.6 13.4275 44.7417C11.7025 45.5938 9.71315 46.2702 7.90433 46.9942C7.75962 47.0521 7.18823 47.0964 7.22881 47.2803C7.26329 47.4349 9.87882 48.0643 10.2047 48.302C12.2313 48.9389 14.2207 49.5356 16.1789 50.2556C16.7145 50.4524 17.5016 50.4879 18.0317 50.2658C18.1108 50.2324 18.1156 50.1364 18.1649 50.1112C19.8838 49.24 21.7805 48.6767 23.5826 47.9547C24.1012 47.7469 24.6206 47.3859 25.146 47.1788C25.1865 46.9091 24.8092 47.0515 24.6327 46.9888C24.5232 46.95 24.5509 46.8267 24.4387 46.8321C23.993 46.8519 23.7084 47.3661 22.878 47.251C22.3614 47.1795 21.9246 46.6298 21.7176 46.5753C21.6439 46.5556 21.0651 46.7722 20.8528 46.7708C20.4045 46.7674 19.8202 46.4459 19.5342 46.1081C19.4882 46.0543 19.4896 45.9167 19.4571 45.8956C19.4125 45.8669 18.6721 45.8479 18.4151 45.7525C18.098 45.6353 18.0189 45.369 17.8228 45.226L17.8241 45.2253Z" fill="#512DA8"/>
<path d="M35.4514 21.6241C36.2486 21.8858 37.3581 22.2711 38.1477 22.7238C39.5209 23.5109 41.1386 25.1675 42.0857 26.4319C45.6731 31.2205 46.9161 37.1478 46.2107 43.1219C46.1265 43.8341 45.9868 44.9907 45.7923 45.6556C45.7464 45.8135 45.469 46.2098 45.3128 46.2737C41.8303 46.4269 38.3087 46.2497 34.8152 46.3232C34.6645 46.3266 34.5303 46.396 34.4029 46.4001C34.3625 46.4015 33.7892 46.0519 33.707 45.9983C33.544 45.8912 33.3667 45.7799 33.2776 45.6047C33.566 45.4846 33.981 45.5629 34.2577 45.501C34.3125 45.4887 34.2748 45.376 34.4022 45.3595C34.8604 45.2991 35.3336 45.308 35.8562 45.2387C37.7615 44.9866 39.8003 44.4543 41.1488 42.9749C43.2665 40.6507 43.4575 35.3875 42.9151 32.4369C42.8576 32.1257 42.5302 30.7782 42.383 30.5852C42.1535 30.2837 41.407 30.3853 41.2358 30.7164C41.0646 31.0474 41.1872 31.2844 41.2221 31.5962C41.3762 32.9534 41.6228 39.948 40.5838 40.8842C40.1654 41.2612 40.314 41.2475 40.025 41.6596C39.3154 42.6713 37.7848 43.1198 36.6506 43.4268C35.9507 43.6164 35.2877 43.6734 34.5426 43.7853C33.0181 44.0147 31.3038 43.9076 29.6793 43.8884C28.8136 44.3568 28.4698 44.8121 27.4172 44.7503C26.8494 44.7174 26.4056 44.5436 25.7941 44.6281C25.0311 44.7332 24.0223 45.5532 23.31 45.9145C23.0279 46.0574 22.4026 46.3397 22.4567 45.7483C22.5211 45.0518 24.1901 44.2785 24.2894 43.944C24.3887 43.6095 24.2606 43.2572 23.912 43.1809C23.2724 43.0408 21.9328 44.1926 21.5294 44.6782C21.2691 44.9914 20.952 45.8019 20.4637 45.6844C20.2411 45.6308 20.1576 45.352 20.213 45.1439C20.3308 44.705 21.1821 43.6322 21.5301 43.3059C21.8163 43.0374 22.956 42.378 23.0306 42.1356C23.1957 41.6047 22.9121 41.2248 22.3546 41.3169C22.0012 41.3753 20.9424 42.2063 20.637 42.479C20.2021 42.8671 19.5939 43.5429 19.2618 44.0189C19.0892 44.2661 18.8762 45.0828 18.5125 44.6823C18.3598 44.5148 18.3892 44.2654 18.4454 44.0587C18.5851 43.5429 19.6104 42.253 20.0213 41.8615C20.2487 41.6445 21.2979 40.8031 21.5102 40.7077C21.5992 40.6678 21.7074 40.7702 21.7732 40.7317C21.8218 40.7029 21.8334 40.5641 21.9554 40.5037C22.9799 39.9961 24.9893 40.4357 26.1159 40.492C28.1534 40.5943 30.2094 40.1884 32.0935 39.7495C33.242 39.4817 34.585 39.299 35.3589 38.2172C36.2397 36.9864 35.3535 34.0743 35.1439 32.6065C35.0042 31.6278 34.8624 30.4471 34.9165 29.4629C34.9556 28.7603 35.4569 27.537 34.2707 27.5741C33.855 27.5872 33.679 27.8681 33.5365 28.2163C32.5277 30.68 34.12 34.1773 33.8906 36.676C33.7954 37.7172 33.3235 37.7021 32.4544 37.9143C31.3573 38.1822 30.243 38.2955 29.1376 38.5029C28.9534 38.5373 28.813 38.7591 28.5774 38.5723C26.9666 35.8504 25.3297 33.1436 24.1668 30.1882C24.3093 30.1944 24.3818 30.0282 24.4901 29.9945C27.6158 29.0227 30.2348 27.046 31.762 24.0322C31.8709 23.8172 31.899 23.4635 32.0668 23.2684C32.1175 23.2093 33.1317 22.8247 33.3653 22.6867C33.7543 22.4566 34.3378 21.8261 34.5809 21.7079C34.7597 21.6207 35.2617 21.5644 35.4507 21.6262L35.4514 21.6241Z" fill="#FFD54F"/>
<path d="M30.358 17.008C30.3798 16.8796 30.3041 16.7532 30.3041 16.6329C30.3041 16.0201 30.9199 15.1819 31.5574 15.1013C34.4636 14.7344 35.2266 19.2017 32.9062 20.8905C32.3607 21.2874 31.8397 21.3646 31.2274 21.5347C30.7317 21.6727 30.6792 22.4099 30.5073 22.7945C29.8173 24.3412 28.5947 25.7881 27.1477 26.6701C26.92 26.8088 26.3301 27.1449 26.0962 27.1886C25.9394 27.2173 26.011 27.1914 26.026 27.119C26.2885 25.8196 26.5552 24.8085 26.026 23.5009C25.9333 23.272 25.6312 22.9325 25.6523 22.7173C25.666 22.5738 25.9381 22.2876 26.0206 22.125C27.1913 19.8104 27.2616 16.8447 24.77 15.3998C23.3987 14.6046 21.6538 14.7672 20.0998 14.964C19.958 14.9817 19.8516 15.0897 19.6852 15.1013C19.3368 15.1259 18.8172 14.9407 18.4244 15.0275C18.2437 14.8403 19.1186 13.6051 19.2822 13.3933C20.0112 12.4506 21.0053 11.6301 22.0172 11.0098C23.9374 9.83265 27.1497 9.17338 29.4163 9.91053C31.0078 10.4277 32.6157 11.2243 33.6167 12.7525C33.8615 13.1262 34.0197 13.5894 34.2427 13.9563C34.2788 14.0157 34.3743 13.9986 34.3784 14.0041C34.4254 14.0649 34.3974 14.1633 34.2768 14.1407C33.9072 14.071 33.1755 13.5621 32.7309 13.4336C31.2124 12.9957 29.434 13.8504 28.8429 15.3219C28.2517 16.7935 28.4971 19.2584 30.5782 18.9052C31.1442 18.8089 32.3975 17.9713 31.8574 17.3141C31.8104 17.2567 31.4395 17.0087 31.4129 17.0087H30.3559L30.358 17.008Z" fill="#FFD54F"/>
<path d="M23.7614 27.6679C22.9062 29.236 20.7847 30.1116 19.2175 29.2796C18.6702 28.9893 18.2255 28.6943 17.7821 28.2512C17.7046 28.0614 18.1874 28.2188 18.2629 28.2221C19.2518 28.2611 21.2842 27.992 21.9458 27.2281C22.0426 27.1163 22.1259 27.238 22.1117 26.9305C22.0955 26.5873 21.7612 26.3128 21.4327 26.3717C20.9596 26.4563 20.2644 26.9054 19.9295 26.9484C19.4551 27.0092 17.8331 27.0403 17.4445 26.945C17.2799 26.9047 16.9237 26.7956 16.8462 26.6322C16.7797 26.492 16.7984 25.5589 16.8197 25.3472C16.8456 25.0886 17.0708 24.1528 17.1883 23.9392C17.3871 23.5775 17.4807 24.0774 17.8105 24.0523C18.3217 24.0133 18.4404 23.4187 18.3223 23.0021C18.2565 22.7706 17.9764 22.768 17.937 22.5279L18.4914 21.2363C18.6276 21.065 19.1872 21.432 19.4738 20.858C19.6861 20.4321 19.7126 19.0677 19.102 18.9639C18.3501 18.8362 18.3449 19.5016 18.1771 19.9896C18.07 20.3011 17.999 19.8653 17.9357 19.7588C17.675 19.3197 17.3638 18.8422 17.1896 18.3435C17.0857 18.0466 17.0089 17.8065 17.1747 17.5102C17.4503 17.0195 17.8744 17.1835 18.3301 17.1736C19.1401 17.1564 19.9249 17.0738 20.7266 16.9951C21.0344 16.9646 20.9944 16.9547 21.1816 16.9111C24.099 16.2259 25.6312 18.8369 24.3359 21.4102C24.13 21.8196 23.409 22.6846 23.3929 23.0953C23.3774 23.4723 23.7046 23.6998 23.8763 23.9921C24.5275 25.0999 24.3636 26.5661 23.7627 27.6686L23.7614 27.6679ZM21.3449 21.0617C21.6625 21.2522 22.2246 20.9083 22.3918 20.6087C22.8965 19.7013 21.8897 18.3442 21.232 19.0895C20.895 19.4711 20.9034 20.2383 21.0893 20.696C21.1029 20.729 21.3262 21.0504 21.3449 21.0617ZM19.681 23.7514C20.926 23.0398 19.7391 22.1655 18.9755 22.9941C18.7264 23.2646 18.6412 23.7011 18.7528 24.049C18.7903 24.0827 19.5099 23.8883 19.6009 23.8473C19.6513 23.8248 19.6584 23.764 19.6803 23.7514H19.681Z" fill="#FFD54F"/>
<path d="M25.1232 34.9779C25.1345 34.9983 25.2043 35.0119 25.2283 35.054C25.3593 35.2866 25.4331 35.598 25.6 35.8258C25.5787 35.9373 24.3399 37.3924 24.1656 37.5563C23.5073 38.1758 23.1994 37.9711 22.4354 38.1669C21.9533 38.2907 21.3888 38.6409 20.9652 38.9074C20.7284 39.0563 20.3162 39.4684 20.112 39.531C19.9345 39.5847 19.2542 39.6214 19.0148 39.6329C18.411 39.6622 17.1396 39.7084 16.6156 39.497C16.349 39.3895 16.1655 39.1182 15.8257 39.1549C15.4679 39.1937 14.8874 39.9043 14.4558 40.0715C13.9564 40.2646 13.4205 40.2062 12.9124 40.3292C12.5627 40.4142 12.2102 40.7025 11.9469 40.7699C11.7873 40.8107 10.9402 40.8086 10.7806 40.7719C10.4182 40.6889 10.3477 40.2973 10.4321 39.9682C10.5658 39.4487 11.2101 39.2834 11.6111 39.0842C11.6809 39.0495 11.6849 38.9421 11.7774 38.8993C12.2561 38.6749 12.9317 38.6653 13.3852 38.3648C13.747 38.1255 14.0954 37.5305 13.6831 37.1925C13.2283 36.8199 13.0587 37.2442 12.7435 37.3686C12.6631 37.4006 11.9775 37.5788 11.8917 37.5896C11.7946 37.6019 11.6989 37.6114 11.6271 37.5237C11.5699 37.4394 12.29 35.7 12.3918 35.6531C12.4297 35.6354 13.1053 35.7966 13.2084 35.8278C13.8288 36.0175 14.3268 36.3718 15.0995 36.4085C15.5357 36.4289 15.6169 36.3031 15.9008 36.2447C17.7314 35.8659 19.455 35.3689 20.9951 34.1789C22.0351 33.3752 22.5272 32.3001 23.2008 31.2C23.8052 32.4865 24.4383 33.7376 25.1232 34.9792V34.9779Z" fill="#FFD54F"/>
<path d="M10.4 36.0006C10.0702 36.8596 9.51735 37.659 9.07356 38.4869C8.86033 38.8853 8.64215 39.569 8.35538 39.9273C8.15786 40.1737 8.03224 39.7262 8.01076 39.5839C7.88349 38.7417 8.91157 36.9747 9.6595 36.3577C9.86032 36.1921 10.0917 36.0265 10.4 36V36.0006Z" fill="#FFD54F"/>
<path d="M27.1962 38.3172L26.9056 38.4L26.4 38.1864L26.8299 37.6009C26.9885 37.5724 27.2366 38.2416 27.1955 38.3172H27.1962Z" fill="#9575CD"/>
<path d="M21.1915 20.7412C21.1724 20.7292 20.9445 20.3851 20.9306 20.3498C20.7409 19.8599 20.7323 19.0388 21.0762 18.6304C21.7476 17.8326 22.776 19.2852 22.2601 20.2563C22.0895 20.5777 21.5157 20.9451 21.1915 20.7412Z" fill="#512DA8"/>
<path d="M19.4283 23.6542C19.4052 23.6686 19.3977 23.7384 19.3447 23.7642C19.2488 23.8112 18.4903 24.0341 18.4509 23.9954C18.3332 23.5973 18.423 23.0969 18.6855 22.786C19.4896 21.836 20.7412 22.8383 19.429 23.6542H19.4283Z" fill="#512DA8"/>
<path d="M51.1346 14.5292C51.151 14.5332 51.1517 14.6303 51.2003 14.6412C51.3147 14.6676 51.4586 14.6188 51.5832 14.6581C52.1757 14.8441 53.3414 15.6973 53.6722 16.2499C54.1975 17.1262 54.7612 18.9589 54.1003 19.8372C53.6003 20.5017 52.5161 20.0035 52.5174 19.2243C52.5188 18.3826 52.7215 18.0955 52.1106 17.3257C51.0538 15.9946 49.0703 16.0747 47.9313 17.2531C44.6156 20.6843 49.0723 25.3787 50.7668 28.4998C53.3921 33.3347 53.6366 39.2414 49.6483 43.3908C49.4655 43.5808 47.9196 44.9832 47.7292 44.7802C47.7525 44.3981 47.7778 43.9576 47.8545 43.5863C48.0223 42.7704 48.86 41.9857 49.3326 41.2452C51.5633 37.7495 51.1955 33.8906 49.56 30.2388C47.947 26.6379 44.3218 23.1917 44.8526 18.9541C45.0341 17.5076 45.8238 16.1786 47.0217 15.3342C48.1943 14.5074 49.7059 14.202 51.1339 14.5292H51.1346Z" fill="#FFD54F"/>
<path d="M17.6055 45.5212C17.7981 45.6549 17.8764 45.9052 18.1872 46.0159C18.4395 46.1055 19.1673 46.1228 19.2105 46.1503C19.2417 46.1701 19.241 46.2994 19.2862 46.35C19.5671 46.6674 20.1401 46.9694 20.5811 46.9726C20.7896 46.9746 21.358 46.7711 21.4304 46.789C21.6336 46.8402 22.0625 47.3566 22.5699 47.4238C23.3846 47.532 23.6649 47.0488 24.1025 47.0302C24.2127 47.0258 24.1855 47.1416 24.293 47.1774C24.4663 47.2357 24.8369 47.1026 24.797 47.356C24.2804 47.5505 23.7711 47.8897 23.2618 48.0849C21.4921 48.7633 19.6295 49.2926 17.9415 50.1111C17.893 50.1348 17.8877 50.2256 17.8107 50.2563C17.2901 50.465 16.5172 50.4323 15.9912 50.2467C14.0675 49.5703 12.1146 49.0097 10.1245 48.4113C9.8044 48.188 7.23523 47.5966 7.20203 47.4513C7.16219 47.2786 7.7233 47.237 7.86541 47.1826C9.64171 46.5023 11.5953 45.8661 13.2893 45.0662C13.5715 44.9331 14.3517 44.7724 14.6652 44.8038C15.1984 44.8563 17.2237 45.2537 17.6068 45.5205L17.6055 45.5212Z" fill="#FFD54F"/>
</svg>
