<svg width="26" height="24" viewBox="0 0 26 24" fill="none" xmlns="http://www.w3.org/2000/svg">
<path d="M12.5628 0.0326561C13.6734 -0.147324 14.3943 0.43415 14.8856 1.34559C15.6687 2.80042 16.3065 5.0144 17.1841 6.31464C17.6305 6.97687 17.9315 6.90304 18.665 7.02533C20.1389 7.27223 23.8503 7.30914 24.8756 8.08098C25.8005 8.77782 25.7521 9.9823 25.097 10.8384C24.1686 12.0509 22.1053 13.4919 20.952 14.6525C20.5011 15.106 20.2981 15.294 20.3338 15.9655C20.4353 17.8553 21.5863 20.6253 21.3614 22.4459C21.215 23.6354 19.9613 24.2399 18.8541 23.9111C17.221 23.4266 15.0828 21.4364 13.4854 20.8595C13.1648 20.7442 12.8108 20.7015 12.4844 20.8342C10.8778 21.4872 8.68651 23.4393 7.12146 23.8904C5.81937 24.2665 4.51728 23.4992 4.51266 22.0975C4.50574 20.3092 5.58409 17.6903 5.66713 15.849C5.68558 15.4394 5.42955 15.0644 5.15506 14.7725C3.97983 13.5208 1.86811 12.1409 0.886642 10.8511C0.027423 9.72387 0.374569 8.07983 1.75047 7.67256C3.52658 7.14647 6.04542 7.33914 7.89534 6.89727C8.15252 6.83612 8.40856 6.74728 8.62077 6.58461L11.2319 1.00524C11.5836 0.563368 11.9804 0.128416 12.5663 0.0338109L12.5628 0.0326561Z" fill="#FFD54F"/>
</svg>
